<svg xmlns="http://www.w3.org/2000/svg" width="37" height="41" viewBox="0 0 37 41">
    <path fill="#FCAF81" fill-rule="nonzero" d="M5.857.163C2.636.163 0 2.8 0 6.02v33.341c0 .708.644 1.352 1.352 1.352h24.33c.707 0 1.35-.644 1.351-1.352v-16.67h7.66c.707 0 1.35-.644 1.351-1.352V6.02c0-3.221-2.636-5.857-5.857-5.857H5.857zm0 2.703H25.26a5.789 5.789 0 0 0-.93 3.154v31.99H2.704V6.02a3.118 3.118 0 0 1 3.154-3.154zm24.33 0A3.118 3.118 0 0 1 33.34 6.02v13.967h-6.308V6.02a3.118 3.118 0 0 1 3.154-3.154zm-24.47 9.462c-.708.037-1.319.714-1.282 1.422.037.708.714 1.318 1.422 1.281h15.319c.714.01 1.37-.637 1.37-1.351 0-.715-.656-1.362-1.37-1.352H5.857a1.359 1.359 0 0 0-.14 0zm0 6.308c-.708.036-1.319.714-1.282 1.422.037.708.714 1.318 1.422 1.281h15.319c.714.01 1.37-.637 1.37-1.352 0-.714-.656-1.361-1.37-1.351H5.857a1.359 1.359 0 0 0-.14 0zm0 6.307c-.708.037-1.319.715-1.282 1.422.037.708.714 1.319 1.422 1.282h15.319c.714.01 1.37-.638 1.37-1.352 0-.714-.656-1.362-1.37-1.352H5.857a1.359 1.359 0 0 0-.14 0zm0 6.308c-.708.037-1.319.714-1.282 1.422.037.708.714 1.318 1.422 1.281h6.308c.714.01 1.37-.637 1.37-1.351s-.656-1.362-1.37-1.352H5.857a1.359 1.359 0 0 0-.14 0z"/>
</svg>
