<?xml version="1.0" encoding="UTF-8" standalone="no"?><!DOCTYPE svg PUBLIC "-//W3C//DTD SVG 1.1//EN" "http://www.w3.org/Graphics/SVG/1.1/DTD/svg11.dtd"><svg width="100%" height="100%" viewBox="0 0 32 58" version="1.1" xmlns="http://www.w3.org/2000/svg" xmlns:xlink="http://www.w3.org/1999/xlink" xml:space="preserve" xmlns:serif="http://www.serif.com/" style="fill-rule:evenodd;clip-rule:evenodd;stroke-linejoin:round;stroke-miterlimit:1.41421;"><clipPath id="_clip1"><path d="M27.162,57.6c-0.472,0 -0.889,-0.193 -1.252,-0.576l-25.366,-26.896c-0.363,-0.386 -0.544,-0.827 -0.544,-1.328c0,-0.501 0.181,-0.942 0.544,-1.328l25.366,-26.896c0.363,-0.383 0.78,-0.576 1.252,-0.576c0.472,0 0.889,0.193 1.252,0.576l2.722,2.886c0.363,0.386 0.544,0.829 0.544,1.327c0,0.502 -0.181,0.945 -0.544,1.328l-21.392,22.683l21.392,22.683c0.363,0.383 0.544,0.826 0.544,1.328c0,0.498 -0.181,0.941 -0.544,1.327l-2.722,2.886c-0.363,0.383 -0.78,0.576 -1.252,0.576Z"/></clipPath><g clip-path="url(#_clip1)"><path d="M-14.4,72l0,-86.4l60.48,0l0,86.4l-60.48,0Z" style="fill:#fff;"/></g></svg>