<?xml version="1.0" encoding="UTF-8" standalone="no"?><!DOCTYPE svg PUBLIC "-//W3C//DTD SVG 1.1//EN" "http://www.w3.org/Graphics/SVG/1.1/DTD/svg11.dtd"><svg width="100%" height="100%" viewBox="0 0 51 70" version="1.1" xmlns="http://www.w3.org/2000/svg" xmlns:xlink="http://www.w3.org/1999/xlink" xml:space="preserve" xmlns:serif="http://www.serif.com/" style="fill-rule:evenodd;clip-rule:evenodd;stroke-linejoin:round;stroke-miterlimit:1.41421;"><clipPath id="_clip1"><path d="M36.111,13.833c-0.639,0.633 -1.489,0.962 -2.338,0.962c-0.849,0 -1.687,-0.329 -2.338,-0.962l-2.646,-2.627l0,32.838c0,1.817 -1.478,3.283 -3.309,3.283c-1.82,0 -3.309,-1.466 -3.309,-3.283l0,-32.826l-2.636,2.615c-1.302,1.278 -3.397,1.278 -4.688,0c-1.29,-1.282 -1.29,-3.361 0,-4.64l8.295,-8.228c0.165,-0.164 0.331,-0.297 0.518,-0.418c0.177,-0.109 0.353,-0.207 0.529,-0.282c0.111,-0.046 0.232,-0.089 0.353,-0.121c0.1,-0.035 0.199,-0.066 0.309,-0.078c0.033,-0.011 0.066,-0.02 0.111,-0.02c0.165,-0.034 0.341,-0.046 0.518,-0.046c0.164,0 0.331,0.012 0.495,0.046c0.044,0 0.088,0.009 0.132,0.02c0.112,0.012 0.21,0.043 0.309,0.078c0.122,0.032 0.243,0.075 0.353,0.121c0.177,0.075 0.352,0.173 0.529,0.282c0.088,0.055 0.176,0.121 0.264,0.199c0.089,0.066 0.177,0.141 0.254,0.219l0.22,0.227l8.073,8.001c1.293,1.279 1.293,3.358 0.002,4.64Z" clip-rule="nonzero"/></clipPath><g clip-path="url(#_clip1)"><rect x="-0.521" y="-14.398" width="52" height="76.125" style="fill:#fff;"/></g><clipPath id="_clip2"><path d="M50.329,25.702l0,37.091c0,3.652 -2.966,6.619 -6.618,6.619l-37.093,0c-3.651,0 -6.618,-2.967 -6.618,-6.619l0,-37.091c0,-3.649 2.967,-6.619 6.618,-6.619l7.279,0c1.832,0 3.31,1.48 3.31,3.309c0,1.82 -1.478,3.31 -3.31,3.31l-7.279,0l0,37.091l37.093,0l0,-37.091l-6.651,0c-1.831,0 -3.309,-1.49 -3.309,-3.31c0,-1.829 1.478,-3.309 3.309,-3.309l6.651,0c3.651,0 6.618,2.97 6.618,6.619Z" clip-rule="nonzero"/></clipPath><g clip-path="url(#_clip2)"><rect x="-14.4" y="4.569" width="79.129" height="79.358" style="fill:#fff;"/></g></svg>