<svg xmlns="http://www.w3.org/2000/svg" width="27" height="20" viewBox="0 0 27 20">
    <path fill="#FFF" fill-opacity=".877" fill-rule="evenodd" d="M0 19.032c0 .549.418.968.964.968h25.072c.546 0 .964-.42.964-.968V9.71a.895.895 0 0 0-.096-.42L22.66.548A.915.915 0 0 0 21.793 0H5.207C4.854 0 4.5.226 4.34.548L.096 9.29A.996.996 0 0 0 0 9.71v9.322zm25.071-.967H1.93v-7.388h7.039c.45 2.097 2.314 3.71 4.532 3.71s4.114-1.58 4.532-3.71h7.04v7.388zM5.818 1.935h15.396l3.311 6.84h-7.329a.949.949 0 0 0-.964.967 2.735 2.735 0 0 1-2.732 2.742 2.735 2.735 0 0 1-2.732-2.742.949.949 0 0 0-.964-.968H2.507l3.31-6.839z"/>
</svg>
