<svg xmlns="http://www.w3.org/2000/svg" width="16" height="17" viewBox="0 0 16 17">
    <g fill="#9B9B9B" fill-rule="evenodd">
        <path d="M7.553 12.661l-.465 1.957 1.527-1.076-.199-.848.664-.718c.033-.033.033-.065 0-.098l-.398-.946c0-.032-.034-.032-.067-.032H7.387c-.033 0-.067.032-.067.032l-.398.946v.098l.63.685zM7.984.625C5.528.625 3.57 2.582 3.57 4.963c0 2.414 1.992 4.338 4.415 4.338 2.457 0 4.416-1.957 4.416-4.338.033-2.38-1.959-4.338-4.416-4.338zm0 7.73c-1.892 0-3.419-1.5-3.419-3.359 0-.294.033-.554.1-.815.398.195 1.128.489 1.958.489.598 0 1.262-.13 1.86-.587.066-.033 1.56-1.11 2.788-.033.1.294.133.62.133.979.033 1.826-1.527 3.327-3.42 3.327zM9.379 16.608l-.233-.914-1.328.914zM6.889 16.608l2.125-1.468-.233-1.044-1.892 1.272-.299 1.24zM15.952 16.608V14.65c0-2.088-1.726-3.784-3.85-3.784h-.134l-1.76 5.74h5.744zM5.76 16.608l-1.693-5.74h-.166C1.776 10.867.05 12.562.05 14.65v1.957h5.71z"/>
    </g>
</svg>
