<svg xmlns="http://www.w3.org/2000/svg" width="19" height="20" viewBox="0 0 19 20">
    <path fill="#A8B6C8" fill-rule="evenodd" d="M13.128 8.408c0-1.398-.496-2.594-1.49-3.587-.994-.994-2.19-1.49-3.587-1.49-1.398 0-2.594.496-3.588 1.49-.993.993-1.49 2.189-1.49 3.587 0 1.398.497 2.593 1.49 3.587.994.994 2.19 1.49 3.588 1.49 1.398 0 2.593-.496 3.587-1.49.994-.994 1.49-2.19 1.49-3.587zm5.803 9.43c0 .393-.143.733-.43 1.02-.287.287-.627.43-1.02.43-.408 0-.748-.143-1.02-.43l-3.888-3.876a7.761 7.761 0 0 1-4.522 1.405 7.84 7.84 0 0 1-3.1-.629 7.978 7.978 0 0 1-2.55-1.7 7.978 7.978 0 0 1-1.7-2.55 7.84 7.84 0 0 1-.63-3.1c0-1.08.21-2.114.63-3.1a7.978 7.978 0 0 1 1.7-2.55 7.978 7.978 0 0 1 2.55-1.7 7.84 7.84 0 0 1 3.1-.63c1.08 0 2.113.21 3.1.63.986.419 1.836.986 2.55 1.7a7.978 7.978 0 0 1 1.7 2.55c.42.986.629 2.02.629 3.1 0 1.662-.469 3.17-1.406 4.522l3.888 3.888c.28.28.42.62.42 1.02z"/>
</svg>
