<svg xmlns="http://www.w3.org/2000/svg" width="27" height="40" viewBox="0 0 27 40">
    <g fill="#A184E2" fill-rule="nonzero">
        <circle cx="13.949" cy="3.692" r="3.692"/>
        <path d="M7.487 21.949l-.77 5.64-5.538 9.026c-.615.975-.307 2.206.667 2.82.36.206.718.309 1.077.309.667 0 1.385-.36 1.744-.975l5.795-9.436c.153-.256.256-.512.307-.82l.513-3.795-3.795-2.77z"/>
        <path d="M25.128 15.744l-5.333-1.95c-.82-1.025-1.692-2.05-2.513-3.076-.718-.872-1.385-2.103-2.615-2.308-.462-.051-2.257-.205-2.718-.154-.41.052-.82.206-1.18.41L5.846 10.77c-.718.308-1.59.616-2.051 1.334L.513 17.795c-.564.974-.205 2.256.77 2.82.307.206.666.257 1.025.257.718 0 1.384-.36 1.795-1.026l2.923-5.128 2.205-.974-1.59 7.128 3.795 2.718 5.692 4.102v9.846c0 1.129.923 2.052 2.051 2.052a2.057 2.057 0 0 0 2.052-2.052V26.667c0-.667-.308-1.282-.82-1.641l-6.206-4.513 1.333-5.539 1.488 1.847c.256.307.564.512.871.615l5.847 2.154a1.996 1.996 0 0 0 2.615-1.231 1.996 1.996 0 0 0-1.23-2.615z"/>
    </g>
</svg>
