<svg xmlns="http://www.w3.org/2000/svg" width="32" height="41" viewBox="0 0 32 41">
    <g fill="#9EBE7C" fill-rule="nonzero">
        <path d="M31.404 15.38C31.304 6.802 24.28-.077 15.702 0 7.124-.076.101 6.803 0 15.38a15.04 15.04 0 0 0 3.106 9.186l11.192 14.83c.056.068.117.132.183.191l.096.088h.06c.118.079.244.143.376.192l.13.043c.173.105.362.178.56.218.162-.003.323-.03.479-.078l.13-.044c.133-.048.26-.113.376-.192h.061l.096-.087c.066-.06.127-.123.183-.192l11.192-14.83a15.04 15.04 0 0 0 3.184-9.325zM15.702 3.49c6.653-.082 12.117 5.237 12.213 11.89a11.585 11.585 0 0 1-2.408 7.083l-9.805 13.024-9.796-13.015a11.585 11.585 0 0 1-2.417-7.092C3.585 8.727 9.05 3.408 15.702 3.49z"/>
        <path d="M15.702 21.486a6.106 6.106 0 1 0 0-12.212 6.106 6.106 0 0 0 0 12.212zm0-8.723a2.617 2.617 0 1 1 0 5.234 2.617 2.617 0 0 1 0-5.234z"/>
    </g>
</svg>
