<?xml version="1.0" encoding="UTF-8" standalone="no"?><!DOCTYPE svg PUBLIC "-//W3C//DTD SVG 1.1//EN" "http://www.w3.org/Graphics/SVG/1.1/DTD/svg11.dtd"><svg width="100%" height="100%" viewBox="0 0 55 52" version="1.1" xmlns="http://www.w3.org/2000/svg" xmlns:xlink="http://www.w3.org/1999/xlink" xml:space="preserve" xmlns:serif="http://www.serif.com/" style="fill-rule:evenodd;clip-rule:evenodd;stroke-linejoin:round;stroke-miterlimit:1.41421;"><clipPath id="_clip1"><path d="M47.88,23.556l-20.52,24.65l-20.52,-24.752c-2.454,-3.433 -3.42,-5.752 -3.42,-8.927c0,-5.92 4.198,-11.249 10.26,-11.299c4.986,-0.041 10.64,5.086 13.68,8.951c2.96,-3.729 8.694,-8.951 13.68,-8.951c5.901,0 10.26,5.379 10.26,11.299c0,3.175 -0.764,5.666 -3.42,9.029Zm-6.84,-23.556c-5.699,0 -10.012,3.368 -13.68,6.887c-3.494,-3.735 -7.981,-6.887 -13.68,-6.887c-8.027,0 -13.68,6.949 -13.68,14.527c0,4.065 1.654,6.992 3.464,9.743l21.261,25.663c2.385,2.543 2.837,2.543 5.222,0l21.309,-25.663c2.13,-2.751 3.464,-5.678 3.464,-9.743c0,-7.578 -5.653,-14.527 -13.68,-14.527Z"/></clipPath><g clip-path="url(#_clip1)"><rect x="-14.4" y="-14.4" width="83.52" height="80.64" style="fill:#4a4a4a;"/></g></svg>