<svg xmlns="http://www.w3.org/2000/svg" width="16" height="16" viewBox="0 0 16 16">
    <path fill="#9B9B9B" fill-rule="evenodd" d="M14.591 15.186H1.444c-.772 0-1.394-.624-1.394-1.423V7.17l6.723 1.948v1.348l1.245 1.249 1.245-1.249V9.093l6.722-1.923v6.618c0 .774-.622 1.398-1.394 1.398zM.05 6.171V4.947c0-.774.722-1.498 1.494-1.498h1.992V2.2c0-.774.722-1.498 1.494-1.498h5.976c.771 0 1.493.724 1.493 1.498V3.45h1.992c.772 0 1.494.724 1.494 1.498v1.224L7.993 8.443.05 6.171zm11.205-3.72c0-.2-.274-.5-.498-.5H5.279c-.224 0-.498.3-.498.5v.998h6.474V2.45z"/>
</svg>
